<?xml version="1.0" encoding="UTF-8" standalone="no"?>
<svg
   id="Layer_1"
   data-name="Layer 1"
   viewBox="0 0 354.5 62.83"
   version="1.1"
   sodipodi:docname="20220614 Airthium White.svg"
   width="354.5"
   height="62.830002"
   inkscape:version="1.2 (dc2aeda, 2022-05-15)"
   xmlns:inkscape="http://www.inkscape.org/namespaces/inkscape"
   xmlns:sodipodi="http://sodipodi.sourceforge.net/DTD/sodipodi-0.dtd"
   xmlns="http://www.w3.org/2000/svg"
   xmlns:svg="http://www.w3.org/2000/svg"
   xmlns:rdf="http://www.w3.org/1999/02/22-rdf-syntax-ns#"
   xmlns:cc="http://creativecommons.org/ns#"
   xmlns:dc="http://purl.org/dc/elements/1.1/">
  <sodipodi:namedview
     id="namedview210"
     pagecolor="#ffffff"
     bordercolor="#000000"
     borderopacity="0.25"
     inkscape:showpageshadow="2"
     inkscape:pageopacity="0.0"
     inkscape:pagecheckerboard="0"
     inkscape:deskcolor="#d1d1d1"
     showgrid="false"
     inkscape:zoom="3.4755927"
     inkscape:cx="256.07143"
     inkscape:cy="42.151084"
     inkscape:window-width="1390"
     inkscape:window-height="1035"
     inkscape:window-x="62"
     inkscape:window-y="23"
     inkscape:window-maximized="0"
     inkscape:current-layer="Layer_1" />
  <defs
     id="defs203">
    <style
       id="style201">.cls-1{font-size:56px;fill:#fff;font-family:ConthraxSb-Regular, Conthrax;}</style>
  </defs>
  <title
     id="title205">20220614 Airthium White</title>
  <g
     aria-label="AIRTHIUM"
     id="text207"
     class="cls-1"
     style="font-size:56px;font-family:ConthraxSb-Regular, Conthrax;fill:#ffffff">
    <path
       d="m 28.56,8.3999985 q 2.128,0 3.584,0.896 Q 33.6,10.135998 35,12.655998 l 18.536,33.656 q 0.28,0.56 0.112,0.952 -0.112,0.336 -0.784,0.336 h -7.112 q -0.952,0 -1.288,-0.728 l -3.976,-7.224 h -26.32 l -3.864,7.224 q -0.392,0.728 -1.288,0.728 h -7.28 q -0.728,0 -0.896,-0.336 -0.112,-0.392 0.168,-0.952 l 18.368,-33.656 q 1.4,-2.52 2.744,-3.3599995 1.344,-0.896 3.136,-0.896 z M 17.696,33.151998 H 36.96 l -8.904,-16.408 q -0.224,-0.392 -0.616,-0.392 h -0.336 q -0.392,0 -0.616,0.392 z"
       id="path271" />
    <path
       d="m 65.631915,8.3999985 q 1.232,0 1.232,1.232 V 46.367998 q 0,1.232 -1.232,1.232 h -6.048 q -1.288,0 -1.288,-1.232 V 9.6319985 q 0,-1.232 1.288,-1.232 z"
       id="path273" />
    <path
       d="m 106.06388,8.3999985 q 6.44,0 9.24,2.9119995 2.8,2.912 2.8,8.624 v 3.192 q 0,4.816 -1.96,7.616 -1.96,2.8 -6.384,3.584 l 9.576,11.872 q 0.28,0.28 0.168,0.84 -0.112,0.56 -0.896,0.56 h -7.224 q -0.728,0 -1.008,-0.168 -0.28,-0.168 -0.56,-0.56 l -8.848,-11.648 H 82.879875 v 11.144 q 0,1.232 -1.232,1.232 h -6.048 q -1.288,0 -1.288,-1.232 v -36.288 q 0,-1.6799995 1.68,-1.6799995 z M 82.879875,28.391998 h 21.448005 q 2.856,0 4.032,-1.232 1.176,-1.232 1.176,-3.752 v -2.352 q 0,-2.52 -1.176,-3.752 -1.176,-1.232 -4.032,-1.232 H 83.607875 q -0.728,0 -0.728,0.672 z"
       id="path275" />
    <path
       d="m 166.93575,8.3999985 q 1.288,0 1.288,1.232 v 5.4879995 q 0,1.288 -1.288,1.288 h -17.584 v 29.96 q 0,1.232 -1.232,1.232 h -6.104 q -1.232,0 -1.232,-1.232 v -29.96 h -17.584 q -1.288,0 -1.288,-1.288 V 9.6319985 q 0,-1.232 1.288,-1.232 z"
       id="path277" />
    <path
       d="m 180.5437,8.3999985 q 1.232,0 1.232,1.232 V 24.191998 h 26.208 V 9.6319985 q 0,-1.232 1.232,-1.232 h 6.048 q 1.288,0 1.288,1.232 V 46.367998 q 0,1.232 -1.288,1.232 h -6.048 q -1.232,0 -1.232,-1.232 v -14.896 h -26.208 v 14.896 q 0,1.232 -1.232,1.232 h -6.048 q -1.288,0 -1.288,-1.232 V 9.6319985 q 0,-1.232 1.288,-1.232 z"
       id="path279" />
    <path
       d="m 231.2796,8.3999985 q 1.232,0 1.232,1.232 V 46.367998 q 0,1.232 -1.232,1.232 h -6.048 q -1.288,0 -1.288,-1.232 V 9.6319985 q 0,-1.232 1.288,-1.232 z"
       id="path281" />
    <path
       d="m 247.18357,8.3999985 q 1.232,0 1.232,1.232 V 31.975998 q 0,2.24 0.336,3.752 0.392,1.456 1.232,2.352 0.84,0.84 2.24,1.232 1.456,0.336 3.64,0.336 h 15.512 q 2.184,0 3.584,-0.336 1.456,-0.392 2.296,-1.232 0.84,-0.896 1.176,-2.352 0.336,-1.512 0.336,-3.752 V 9.6319985 q 0,-1.232 1.232,-1.232 h 6.104 q 1.232,0 1.232,1.232 V 32.815998 q 0,4.032 -0.84,6.888 -0.84,2.8 -2.744,4.592 -1.848,1.736 -4.872,2.52 -2.968,0.784 -7.224,0.784 h -16.128 q -4.256,0 -7.224,-0.784 -2.968,-0.784 -4.872,-2.52 -1.848,-1.792 -2.744,-4.592 -0.84,-2.856 -0.84,-6.888 V 9.6319985 q 0,-1.232 1.288,-1.232 z"
       id="path283" />
    <path
       d="m 305.75952,8.3999985 q 1.232,0 2.128,0.168 0.896,0.168 1.568,0.672 0.672,0.448 1.176,1.2879995 0.56,0.784 1.12,2.128 l 11.648,26.88 q 0.224,0.504 0.784,0.504 h 0.672 q 0.56,0 0.784,-0.504 l 11.648,-26.88 q 0.56,-1.344 1.064,-2.128 0.56,-0.8399995 1.232,-1.2879995 0.672,-0.504 1.512,-0.672 0.896,-0.168 2.128,-0.168 h 5.992 q 2.912,0 3.92,1.344 1.008,1.2879995 1.008,4.4799995 v 32.144 q 0,1.232 -1.288,1.232 h -5.712 q -1.232,0 -1.232,-1.232 v -29.232 q 0,-0.56 -0.448,-0.56 h -0.504 q -0.56,0 -0.728,0.448 l -11.312,25.088 q -0.672,1.512 -1.4,2.576 -0.672,1.008 -1.512,1.68 -0.784,0.672 -1.848,0.952 -1.008,0.28 -2.408,0.28 h -2.688 q -1.4,0 -2.464,-0.28 -1.008,-0.28 -1.848,-0.952 -0.784,-0.672 -1.512,-1.68 -0.672,-1.064 -1.344,-2.576 l -11.312,-25.088 q -0.168,-0.448 -0.728,-0.448 h -0.504 q -0.448,0 -0.448,0.56 v 29.232 q 0,1.232 -1.232,1.232 h -5.712 q -1.288,0 -1.288,-1.232 v -32.144 q 0,-3.192 1.008,-4.4799995 1.008,-1.344 3.976,-1.344 z"
       id="path285" />
  </g>
  <metadata
     id="metadata212">
    <rdf:RDF>
      <cc:Work
         rdf:about="">
        <dc:title>20220614 Airthium White</dc:title>
      </cc:Work>
    </rdf:RDF>
  </metadata>
</svg>
